<?xml version="1.0" encoding="UTF-8"?>
<svg id="Layer_1" data-name="Layer 1" xmlns="http://www.w3.org/2000/svg" viewBox="0 0 180 50">
  <defs>
    <style>
      .cls-1, .cls-2 {
        fill: #414141;
      }

      .cls-2, .cls-3, .cls-4, .cls-5 {
        fill-rule: evenodd;
      }

      .cls-3 {
        fill: #1e427e;
      }

      .cls-4 {
        fill: #a02c22;
      }

      .cls-5 {
        fill: #ed2132;
      }
    </style>
  </defs>
  <path class="cls-5" d="M6.5,14.41c-1.02-1.77-1.28-3.88-.72-5.85,.55-1.97,1.87-3.63,3.67-4.61,.34-.19,.68-.37,1.01-.56,3.48-1.9,7.84-.7,9.84,2.73,3.9,6.67,9.58,16.39,9.58,16.39,0,0,5.68-9.72,9.58-16.39,.95-1.63,2.51-2.81,4.34-3.29,1.83-.48,3.77-.21,5.39,.75,.39,.23,.79,.46,1.18,.69,3.53,2.07,4.74,6.59,2.72,10.15-4.25,7.49-11.35,20.02-16.57,29.23-1.35,2.38-3.87,3.85-6.6,3.86-2.73,0-5.26-1.45-6.62-3.82-5.26-9.17-12.44-21.67-16.8-29.27Z"/>
  <path class="cls-4" d="M19.86,5.37s-1.78-1.81-5.02-1.81-6.47,3.76-4.14,7.81c2.33,4.05,5.86,10.04,6.86,11.57,1,1.52,2.76,3.28,6.19,3.28s6.13-3.7,6.13-3.7L19.86,5.37Z"/>
  <path class="cls-5" d="M69.15,35.49h11.78c1.38,0,2.49-1.12,2.49-2.49s-1.12-2.49-2.49-2.49h-11.78v-6.04h11.83c1.38,0,2.49-1.12,2.49-2.49s-1.12-2.49-2.49-2.49h-14.32c-1.38,0-2.49,1.12-2.49,2.49v22.04c0,1.38,1.12,2.49,2.49,2.49h14.27c1.38,0,2.49-1.12,2.49-2.49s-1.12-2.49-2.49-2.49h-11.78v-6.04Zm22.4-11.02v19.55c0,1.38,1.12,2.49,2.49,2.49s2.49-1.12,2.49-2.49V24.47h4.54c1.38,0,2.49-1.12,2.49-2.49s-1.12-2.49-2.49-2.49h-14.22c-1.38,0-2.49,1.12-2.49,2.49s1.12,2.49,2.49,2.49h4.69Zm-36.59-2.49v22.04c0,1.38,1.12,2.49,2.49,2.49s2.49-1.12,2.49-2.49V21.98c0-1.38-1.12-2.49-2.49-2.49s-2.49,1.12-2.49,2.49Z"/>
  <path class="cls-3" d="M118.28,41.56l2.81,4.97s-1.99,.22-3.45,.25c-4.64,.12-14.39-2.77-14.39-13.77s10.45-13.72,14.58-13.72,14.5,3.08,14.5,13.72c0,6.74-4.05,9.82-4.05,9.82l2.08,3.45h-5.8l-7.23-12.63h5.68l2.03,3.43s1.12-1.34,1.12-4.07-2.15-8.47-8.2-8.47-8.39,4.93-8.39,8.47c0,8.77,8.73,8.55,8.73,8.55Z"/>
  <path class="cls-3" d="M135.09,19.78h12.4c4.45,0,10.55,2.85,10.55,9.62s-5.45,8.57-5.45,8.57l6.02,8.36h-6.77l-10.01-14.57h6.6l1.14,1.71s2.29-1,2.29-3.98-2.65-4.69-5.28-4.69h-5.39v21.49h-6.13l.04-26.5Z"/>
  <rect class="cls-1" x="158.61" y="8.34" width="6.65" height="1.69"/>
  <rect class="cls-1" x="160.97" y="9.18" width="1.93" height="6.83"/>
  <polygon class="cls-2" points="166.21 8.34 167.82 8.34 170.3 12.6 172.86 8.34 174.5 8.34 174.5 16.01 172.71 16.01 172.71 11.86 170.86 14.83 169.8 14.83 168.03 11.85 168.03 16.01 166.19 16.01 166.21 8.34"/>
</svg>