<?xml version="1.0" encoding="UTF-8"?>
<svg id="Layer_1" data-name="Layer 1" xmlns="http://www.w3.org/2000/svg" viewBox="0 0 65 50">
  <defs>
    <style>
      .cls-1 {
        fill: #009edb;
      }

      .cls-2 {
        fill: #ed1c24;
      }

      .cls-2, .cls-3 {
        fill-rule: evenodd;
      }

      .cls-3 {
        fill: #005aaa;
      }
    </style>
  </defs>
  <path class="cls-3" d="M36,17.16l-4.28,4.28-.21,.21-2.37,2.38-2.16,2.16-.21,.21h0l-2,2h0s-.21,.21-.21,.21c-.6,.6-1.27,1.09-1.97,1.48-.36,.2-.72,.37-1.1,.51-.83,.32-1.71,.51-2.59,.57-.54,.04-1.09,.02-1.63-.04-1.16-.14-2.3-.51-3.34-1.11-.45-.26-.9-.53-1.28-.9t0,0L4.43,20.91c-.14-.15-.26-.31-.36-.49-.26-.44-.41-.95-.41-1.5,0-.09,0-.17,.01-.26,.01-.13,.03-.25,.06-.37l.05-.2c.11-.37,.29-.71,.54-1.02,.07-.08,.14-.16,.21-.23l.14-.14L12.96,8.41h0l5.03-5.03c1.12-1.12,2.91-1.17,4.08-.14l13.92,13.92Z"/>
  <path class="cls-2" d="M12.55,29.03s.05,.05,.08,.08c.38,.38,.84,.65,1.29,.91,1.04,.6,2.18,.97,3.34,1.11,.54,.07,1.09,.08,1.63,.04,.88-.06,1.76-.24,2.59-.56,.37-.14,.74-.31,1.1-.51,.71-.39,1.37-.88,1.97-1.48l.21-.21h0s2-2,2-2h0l1.01-1.02,2.37-2.37,1.36-1.36,.21-.21,8.62-8.62,3.56-3.85,.21-.21c1.09-1.08,2.85-1.08,3.93,0l1.95,1.95h0l.06,.06c-.86-.04-1.73,.27-2.38,.91l-6.59,6.48-.07,.08-11.46,11.28h-.02s-4.22,4.13-4.22,4.13l-.28,.3c-.33,.32-1.03,.94-1.96,1.38-.42,.2-.85,.34-1.27,.43-.25,.05-.51,.08-.76,.09h-.19c-.67,0-1.33-.15-1.96-.44l-1.99-1.98-.81-.81-3.72-3.76,.17,.17Z"/>
  <path class="cls-2" d="M60.53,25.18l-9.55,9.69-9.8,9.95c-.31,.31-.64,.59-.99,.85-.01,.01-.03,.02-.04,.03-.05,.03-.09,.07-.14,.1,0,0-.01,0-.02,.01-1.48,1.06-3.29,1.68-5.25,1.68-2.41,0-4.61-.95-6.23-2.49l-.22-.2-1.69-1.69-4.74-4.74-1.8-1.8c.26,.04,.52,.06,.78,.06h.22c.3-.01,.6-.05,.9-.11,.48-.1,.97-.27,1.46-.49,1.04-.49,1.81-1.17,2.18-1.53,.14-.14,.25-.26,.3-.31l3.64-3.58v.02s12.54-12.33,12.54-12.33l.07-.08,6.09-5.99c.82-.8,2.1-.91,3.03-.27l1.44,1.44s0,0,0,0l7.82,7.82c.07,.07,.14,.14,.2,.22,.89,1.09,.82,2.71-.2,3.72Z"/>
  <path class="cls-1" d="M34.71,18.45l-.8,.8-1.41-1.42c-.22-.22-.22-.58,0-.8,.22-.22,.58-.22,.8,0l1.41,1.41Z"/>
  <path class="cls-1" d="M32.33,20.82l-.8,.8-4.43-4.46c-1.64-1.66-4.05-2.24-6.27-1.52-.3,.1-.62-.07-.71-.36-.1-.3,.07-.62,.37-.72,2.63-.85,5.48-.16,7.42,1.8l4.43,4.46Z"/>
  <path class="cls-1" d="M27.58,25.57l-.8,.8-4.45-4.48c-.22-.22-.22-.58,0-.8,.22-.22,.58-.22,.8,0l4.45,4.48Z"/>
  <path class="cls-1" d="M29.96,23.2l-.8,.8-4.44-4.47c-1.08-1.09-2.85-1.1-3.95-.02-1.09,1.08-1.1,2.85-.01,3.94l2.86,2.89c.22,.22,.22,.58,0,.8-.22,.22-.58,.22-.8,0l-2.86-2.88c-1.52-1.54-1.51-4.03,.02-5.55,1.54-1.52,4.03-1.51,5.55,.02l4.44,4.47Z"/>
  <path class="cls-1" d="M22.6,30.08s-.02,0-.02,.01c-.35,.19-.7,.36-1.07,.5l-3.94-3.97c-2.46-2.48-2.82-6.37-.84-9.25,.18-.26,.53-.32,.79-.15,.26,.18,.32,.53,.15,.79-1.67,2.43-1.37,5.71,.71,7.81l4.22,4.26Z"/>
  <path class="cls-1" d="M30.29,14.81c-.22,.22-.58,.21-.81,0-3.69-3.72-9.72-3.74-13.44-.05-3.72,3.69-3.74,9.72-.05,13.44l2.89,2.92s.04,.04,.05,.06c-.01,0-.03,0-.04,0-.53,.04-1.06,.02-1.58-.04l-2.12-2.14c-4.13-4.16-4.11-10.92,.06-15.05,4.17-4.13,10.92-4.11,15.05,.06h0c.22,.23,.22,.59,0,.81Z"/>
</svg>